<?xml version="1.0" encoding="utf-8"?>
<!-- Generator: Adobe Illustrator 16.0.0, SVG Export Plug-In . SVG Version: 6.00 Build 0)  -->
<!DOCTYPE svg PUBLIC "-//W3C//DTD SVG 1.1//EN" "http://www.w3.org/Graphics/SVG/1.1/DTD/svg11.dtd">
<svg version="1.1" id="Layer_1" focusable="false" xmlns="http://www.w3.org/2000/svg" xmlns:xlink="http://www.w3.org/1999/xlink"
	 x="0px" y="0px" width="15px" height="15px" viewBox="298.5 388.497 15 15" enable-background="new 298.5 388.497 15 15"
	 xml:space="preserve">
<path fill="#7ad4ef" d="M298.5,392.697v-0.6c0-0.497,0.315-0.9,0.703-0.9h10.547v-1.8c0-0.801,0.759-1.202,1.2-0.636l2.344,3
	c0.274,0.352,0.274,0.921,0,1.272l-2.344,3c-0.439,0.563-1.2,0.168-1.2-0.636v-1.8h-10.547
	C298.815,393.597,298.5,393.194,298.5,392.697z M312.797,398.396H302.25v-1.8c0-0.799-0.758-1.203-1.2-0.636l-2.344,3
	c-0.275,0.352-0.275,0.921,0,1.272l2.344,3c0.44,0.563,1.2,0.167,1.2-0.637v-1.8h10.547c0.389,0,0.703-0.402,0.703-0.899v-0.6
	C313.5,398.8,313.186,398.396,312.797,398.396z"/>
</svg>
