<?xml version="1.0" encoding="utf-8"?>
<!-- Generator: Adobe Illustrator 16.0.0, SVG Export Plug-In . SVG Version: 6.00 Build 0)  -->
<!DOCTYPE svg PUBLIC "-//W3C//DTD SVG 1.1//EN" "http://www.w3.org/Graphics/SVG/1.1/DTD/svg11.dtd">
<svg version="1.1" id="Layer_1" focusable="false" xmlns="http://www.w3.org/2000/svg" xmlns:xlink="http://www.w3.org/1999/xlink"
	 x="0px" y="0px" width="17px" height="15px" viewBox="297.5 393.307 17 15" enable-background="new 297.5 393.307 17 15"
	 xml:space="preserve">
<path fill="#00ffd0" d="M311.313,407.999h-2.789c-0.219,0-0.398-0.207-0.398-0.459v-1.53c0-0.253,0.18-0.46,0.398-0.46h2.789
	c0.588,0,1.063-0.547,1.063-1.225v-7.345c0-0.678-0.475-1.225-1.063-1.225h-2.789c-0.219,0-0.398-0.207-0.398-0.459v-1.53
	c0-0.253,0.18-0.459,0.398-0.459h2.789c1.76,0,3.188,1.645,3.188,3.673v7.345C314.5,406.354,313.072,407.999,311.313,407.999z
	 M309.752,400.309l-5.578-6.427c-0.498-0.574-1.361-0.172-1.361,0.65v3.673h-4.516c-0.441,0-0.797,0.409-0.797,0.918v3.673
	c0,0.509,0.355,0.918,0.797,0.918h4.516v3.673c0,0.823,0.863,1.226,1.361,0.651l5.578-6.428
	C310.061,401.25,310.061,400.669,309.752,400.309z"/>
</svg>
