<?xml version="1.0" encoding="utf-8"?>
<!-- Generator: Adobe Illustrator 16.0.0, SVG Export Plug-In . SVG Version: 6.00 Build 0)  -->
<!DOCTYPE svg PUBLIC "-//W3C//DTD SVG 1.1//EN" "http://www.w3.org/Graphics/SVG/1.1/DTD/svg11.dtd">
<svg version="1.1" id="Layer_1" focusable="false" xmlns="http://www.w3.org/2000/svg" xmlns:xlink="http://www.w3.org/1999/xlink"
	 x="0px" y="0px" width="15px" height="14.999px" viewBox="293.704 388.513 15 14.999"
	 enable-background="new 293.704 388.513 15 14.999" xml:space="preserve">
<path fill="#fd1b1b" d="M309.469,396.676l-5.667,6.562c-0.506,0.586-1.383,0.176-1.383-0.663v-3.75h-4.588
	c-0.448,0-0.81-0.418-0.81-0.938v-3.749c0-0.52,0.361-0.938,0.81-0.938h4.588v-3.749c0-0.836,0.874-1.25,1.383-0.664l5.667,6.562
	C309.782,395.715,309.782,396.309,309.469,396.676z M299.18,403.042v-1.562c0-0.258-0.182-0.469-0.404-0.469h-2.833
	c-0.597,0-1.08-0.559-1.08-1.25v-7.499c0-0.691,0.482-1.25,1.08-1.25h2.833c0.222,0,0.404-0.211,0.404-0.469v-1.562
	c0-0.258-0.182-0.469-0.404-0.469h-2.833c-1.788,0-3.239,1.679-3.239,3.749v7.499c0,2.07,1.451,3.749,3.239,3.749h2.833
	C298.998,403.511,299.18,403.3,299.18,403.042z"/>
</svg>
