<?xml version="1.0" encoding="utf-8"?>
<!-- Generator: Adobe Illustrator 16.0.0, SVG Export Plug-In . SVG Version: 6.00 Build 0)  -->
<!DOCTYPE svg PUBLIC "-//W3C//DTD SVG 1.1//EN" "http://www.w3.org/Graphics/SVG/1.1/DTD/svg11.dtd">
<svg version="1.1" id="Layer_1" focusable="false" xmlns="http://www.w3.org/2000/svg" xmlns:xlink="http://www.w3.org/1999/xlink"
	 x="0px" y="0px" width="15px" height="15px" viewBox="298.5 388.5 15 15" enable-background="new 298.5 388.5 15 15"
	 xml:space="preserve">
<path fill="#428bf9" d="M305.986,388.5c-2.004,0.003-3.824,0.793-5.167,2.077l-1.08-1.08c-0.458-0.458-1.239-0.134-1.239,0.513
	v4.054c0,0.401,0.325,0.726,0.726,0.726h4.054c0.647,0,0.971-0.782,0.514-1.239l-1.263-1.263c0.933-0.874,2.141-1.358,3.424-1.369
	c2.794-0.024,5.149,2.237,5.125,5.124c-0.022,2.739-2.243,5.037-5.08,5.037c-1.244,0-2.419-0.443-3.346-1.257
	c-0.144-0.125-0.36-0.118-0.495,0.018l-1.199,1.199c-0.147,0.147-0.14,0.388,0.015,0.527c1.33,1.201,3.092,1.933,5.025,1.933
	c4.143,0,7.5-3.358,7.5-7.5C313.5,391.862,310.124,388.492,305.986,388.5z"/>
</svg>
