<?xml version="1.0" encoding="utf-8"?>
<!-- Generator: Adobe Illustrator 16.0.0, SVG Export Plug-In . SVG Version: 6.00 Build 0)  -->
<!DOCTYPE svg PUBLIC "-//W3C//DTD SVG 1.1//EN" "http://www.w3.org/Graphics/SVG/1.1/DTD/svg11.dtd">
<svg version="1.1" id="Layer_1" focusable="false" xmlns="http://www.w3.org/2000/svg" xmlns:xlink="http://www.w3.org/1999/xlink"
	 x="0px" y="0px" width="31.5px" height="36px" viewBox="14.25 12 31.5 36" enable-background="new 14.25 12 31.5 36"
	 xml:space="preserve">
<path fill="#FFFFFF" d="M30,27.75c-1.243,0-2.25,1.008-2.25,2.25c0,1.243,1.008,2.25,2.25,2.25c1.242,0,2.25-1.008,2.25-2.25
	C32.248,28.758,31.242,27.752,30,27.75z M45.059,21c-0.764-1.371-2.848-3.568-8.175-2.944C35.371,14.452,33.068,12,30,12
	s-5.371,2.452-6.883,6.056C17.79,17.44,15.706,19.629,14.941,21c-1.151,2.065-1.055,5.142,1.767,9c-2.822,3.858-2.918,6.935-1.767,9
	c2.048,3.683,7.147,3.067,8.176,2.944C24.629,45.548,26.932,48,30,48s5.371-2.452,6.884-6.056c1.028,0.123,6.127,0.738,8.175-2.944
	c1.152-2.065,1.056-5.142-1.767-9C46.114,26.142,46.211,23.065,45.059,21L45.059,21z M18.704,36.75
	c-0.281-0.51-0.009-1.74,1.055-3.393c0.484,0.457,0.994,0.905,1.539,1.345c0.114,0.967,0.281,1.907,0.475,2.821
	C20.04,37.585,18.967,37.216,18.704,36.75z M21.297,25.298c-0.545,0.439-1.055,0.888-1.539,1.345
	c-1.063-1.652-1.336-2.883-1.055-3.393c0.237-0.431,1.151-0.809,2.664-0.809c0.123,0,0.272,0.026,0.404,0.026
	C21.569,23.408,21.411,24.349,21.297,25.298z M30,16.5c0.668,0,1.564,0.949,2.383,2.619c-0.791,0.264-1.582,0.563-2.383,0.905
	c-0.8-0.343-1.591-0.642-2.382-0.905C28.435,17.449,29.332,16.5,30,16.5z M30,43.5c-0.668,0-1.565-0.949-2.382-2.619
	c0.791-0.264,1.582-0.563,2.382-0.905c0.801,0.343,1.592,0.642,2.383,0.905C31.564,42.551,30.668,43.5,30,43.5z M30,35.625
	c-3.106,0-5.625-2.519-5.625-5.625s2.519-5.625,5.625-5.625s5.625,2.519,5.625,5.625S33.106,35.625,30,35.625z M41.296,36.75
	c-0.255,0.466-1.336,0.835-3.067,0.773c0.193-0.914,0.36-1.854,0.475-2.821c0.545-0.439,1.055-0.888,1.538-1.345
	C41.305,35.01,41.577,36.24,41.296,36.75z M40.241,26.643c-0.483-0.457-0.993-0.905-1.538-1.345c-0.114-0.949-0.272-1.89-0.475-2.83
	c0.132,0,0.281-0.026,0.404-0.026c1.512,0,2.426,0.378,2.663,0.809C41.577,23.76,41.305,24.99,40.241,26.643z"/>
</svg>
