<?xml version="1.0" encoding="utf-8"?>
<!-- Generator: Adobe Illustrator 16.0.0, SVG Export Plug-In . SVG Version: 6.00 Build 0)  -->
<!DOCTYPE svg PUBLIC "-//W3C//DTD SVG 1.1//EN" "http://www.w3.org/Graphics/SVG/1.1/DTD/svg11.dtd">
<svg version="1.1" id="Layer_1" focusable="false" xmlns="http://www.w3.org/2000/svg" xmlns:xlink="http://www.w3.org/1999/xlink"
	 x="0px" y="0px" width="36px" height="36px" viewBox="12 12 36 36" enable-background="new 12 12 36 36" xml:space="preserve">
<path fill="#FFFDFD" d="M26.4,35.625L26.4,35.625c-0.001-1.138,0.074-0.614-4.785-12.762c-0.993-2.481-3.835-2.486-4.83,0
	c-4.901,12.252-4.784,11.661-4.784,12.762H12c0,3.106,3.224,5.625,7.2,5.625C23.176,41.25,26.4,38.731,26.4,35.625z M19.2,24.375
	L23.25,34.5h-8.1L19.2,24.375z M47.999,35.625c0-1.138,0.075-0.614-4.784-12.762c-0.993-2.481-3.836-2.486-4.83,0
	c-4.9,12.252-4.783,11.661-4.783,12.762H33.6c0,3.106,3.225,5.625,7.2,5.625C44.776,41.25,48,38.731,47.999,35.625L47.999,35.625z
	 M36.75,34.5l4.05-10.125L44.85,34.5H36.75z M41.7,43.5h-9.9V22.775c1.322-0.724,2.315-2.213,2.61-4.025h7.29
	c0.497,0,0.899-0.503,0.899-1.125v-2.25c0-0.622-0.402-1.125-0.899-1.125h-8.12C32.759,12.892,31.467,12,30,12
	c-1.467,0-2.759,0.892-3.58,2.25H18.3c-0.497,0-0.9,0.503-0.9,1.125v2.25c0,0.622,0.403,1.125,0.9,1.125h7.291
	c0.294,1.811,1.287,3.302,2.61,4.025V43.5h-9.9c-0.497,0-0.9,0.504-0.9,1.125v2.25c0,0.621,0.403,1.125,0.9,1.125h23.4
	c0.497,0,0.899-0.504,0.899-1.125v-2.25C42.6,44.004,42.197,43.5,41.7,43.5z"/>
</svg>
