<?xml version="1.0" encoding="utf-8"?>
<!-- Generator: Adobe Illustrator 16.0.0, SVG Export Plug-In . SVG Version: 6.00 Build 0)  -->
<!DOCTYPE svg PUBLIC "-//W3C//DTD SVG 1.1//EN" "http://www.w3.org/Graphics/SVG/1.1/DTD/svg11.dtd">
<svg version="1.1" id="Layer_1" focusable="false" xmlns="http://www.w3.org/2000/svg" xmlns:xlink="http://www.w3.org/1999/xlink"
	 x="0px" y="0px" width="31.5px" height="36px" viewBox="14.25 12 31.5 36" enable-background="new 14.25 12 31.5 36"
	 xml:space="preserve">
<path fill="#FFFFFF" d="M42.375,12h-24.75c-1.8,0-3.375,1.575-3.375,3.375v29.25c0,1.8,1.575,3.375,3.375,3.375h24.75
	c1.8,0,3.375-1.575,3.375-3.375v-29.25C45.75,13.575,44.175,12,42.375,12z M23.25,42.6c0,0.45-0.45,0.9-0.9,0.9h-2.7
	c-0.45,0-0.9-0.45-0.9-0.9V39.9c0-0.45,0.45-0.9,0.9-0.9h2.7c0.45,0,0.9,0.45,0.9,0.9V42.6z M23.25,33.6c0,0.45-0.45,0.9-0.9,0.9
	h-2.7c-0.45,0-0.9-0.45-0.9-0.9V30.9c0-0.45,0.45-0.9,0.9-0.9h2.7c0.45,0,0.9,0.45,0.9,0.9V33.6z M32.25,42.6
	c0,0.45-0.45,0.9-0.9,0.9h-2.7c-0.45,0-0.9-0.45-0.9-0.9V39.9c0-0.45,0.45-0.9,0.9-0.9h2.7c0.45,0,0.9,0.45,0.9,0.9V42.6z
	 M32.25,33.6c0,0.45-0.45,0.9-0.9,0.9h-2.7c-0.45,0-0.9-0.45-0.9-0.9V30.9c0-0.45,0.45-0.9,0.9-0.9h2.7c0.45,0,0.9,0.45,0.9,0.9
	V33.6z M41.25,42.6c0,0.45-0.45,0.9-0.9,0.9H37.65c-0.45,0-0.9-0.45-0.9-0.9V30.9c0-0.45,0.45-0.9,0.9-0.9h2.699
	c0.45,0,0.9,0.45,0.9,0.9V42.6z M41.25,24.6c0,0.45-0.45,0.9-0.9,0.9h-20.7c-0.45,0-0.9-0.45-0.9-0.9v-7.2c0-0.45,0.45-0.9,0.9-0.9
	h20.7c0.45,0,0.9,0.45,0.9,0.9V24.6z"/>
</svg>
