<?xml version="1.0" encoding="utf-8"?>
<!-- Generator: Adobe Illustrator 16.0.0, SVG Export Plug-In . SVG Version: 6.00 Build 0)  -->
<!DOCTYPE svg PUBLIC "-//W3C//DTD SVG 1.1//EN" "http://www.w3.org/Graphics/SVG/1.1/DTD/svg11.dtd">
<svg version="1.1" id="Layer_1" xmlns="http://www.w3.org/2000/svg" xmlns:xlink="http://www.w3.org/1999/xlink" x="0px" y="0px"
	 width="14px" height="18px" viewBox="0 0 14 18" enable-background="new 0 0 14 18" xml:space="preserve">
<path fill="#FFFFFF" d="M7,1.519c-2.936,0-5.315,2.377-5.315,5.315c0,2.149,0.958,4.237,2.144,5.977
	c1.152,1.7,2.473,3.006,3.172,3.645c0.699-0.639,2.02-1.944,3.172-3.645c1.186-1.739,2.144-3.828,2.144-5.977
	C12.315,3.896,9.936,1.519,7,1.519z M0.166,6.834C0.166,3.06,3.226,0,7,0c3.775,0,6.834,3.06,6.834,6.834
	c0,2.582-1.14,4.966-2.406,6.834c-1.271,1.868-2.723,3.288-3.455,3.956c-0.556,0.501-1.39,0.501-1.944,0
	c-0.734-0.668-2.184-2.088-3.457-3.956C1.306,11.8,0.166,9.416,0.166,6.834z M7,5.315c-0.838,0-1.519,0.683-1.519,1.519
	S6.162,8.353,7,8.353c0.838,0,1.519-0.683,1.519-1.519S7.838,5.315,7,5.315z M3.963,6.834c0-1.678,1.36-3.037,3.037-3.037
	c1.678,0,3.037,1.359,3.037,3.037S8.678,9.871,7,9.871C5.323,9.871,3.963,8.512,3.963,6.834z"/>
</svg>
