<svg width="18" height="12" viewBox="0 0 18 12" fill="none" xmlns="http://www.w3.org/2000/svg">
<path fill-rule="evenodd" clip-rule="evenodd" d="M0.23325 1.25175C0.6 0.5115 1.36425 0 2.25 0H15.75C16.6357 0 17.4 0.5115 17.7668 1.25175C17.916 1.55325 18 1.893 18 2.25V9.75C18 10.9928 16.9928 12 15.75 12H2.25C1.00725 12 0 10.9928 0 9.75V2.25C0 1.893 0.084 1.55325 0.23325 1.25175ZM2.316 1.5L8.64075 4.95C8.865 5.07225 9.135 5.07225 9.35925 4.95L15.684 1.5H2.316ZM16.5 2.76375L10.0778 6.26625C9.40575 6.633 8.59425 6.633 7.92225 6.26625L1.5 2.76375V9.75C1.5 10.164 1.836 10.5 2.25 10.5H15.75C16.164 10.5 16.5 10.164 16.5 9.75V2.76375Z" fill="url(#paint0_linear)"/>
<defs>
<linearGradient id="paint0_linear" x1="9" y1="0" x2="9" y2="12" gradientUnits="userSpaceOnUse">
<stop stop-color="#23C0F5"/>
<stop offset="1" stop-color="#007ACE"/>
</linearGradient>
</defs>
</svg>
