<svg width="16" height="16" viewBox="0 0 16 16" fill="none" xmlns="http://www.w3.org/2000/svg">
<path d="M4 8.00001L3.29289 7.2929L2.58579 8.00001L3.29289 8.70712L4 8.00001ZM11.3738 2.04045C11.7643 1.64993 11.7643 1.01676 11.3738 0.626237C10.9832 0.235712 10.3501 0.235712 9.95956 0.626237L11.3738 2.04045ZM9.95956 15.3738C10.3501 15.7643 10.9832 15.7643 11.3738 15.3738C11.7643 14.9833 11.7643 14.3501 11.3738 13.9596L9.95956 15.3738ZM4.70711 8.70712L11.3738 2.04045L9.95956 0.626237L3.29289 7.2929L4.70711 8.70712ZM11.3738 13.9596L4.70711 7.2929L3.29289 8.70712L9.95956 15.3738L11.3738 13.9596Z" fill="#ffffff"/>
</svg>
