<svg width="12" height="12" viewBox="0 0 12 12" fill="none" xmlns="http://www.w3.org/2000/svg">
<path d="M8.31111 5.63082L0.755556 0.0924098C0.613889 -0.0128199 0.421222 -0.0294351 0.261611 0.0490256C0.101056 0.127486 0 0.287177 0 0.461637V11.5385C0 11.7129 0.101056 11.8726 0.260667 11.9511C0.327722 11.9834 0.400444 12 0.472222 12C0.572333 12 0.672444 11.9686 0.755556 11.9077L8.31111 6.36927C8.43011 6.2825 8.5 6.14497 8.5 6.00005C8.5 5.85512 8.43011 5.71759 8.31111 5.63082Z" fill="#464646"/>
<path d="M11.5625 0.00012207H10.6875C10.446 0.00012207 10.25 0.206889 10.25 0.461656V11.5385C10.25 11.7932 10.446 12 10.6875 12H11.5625C11.804 12 12 11.7932 12 11.5385V0.461656C12 0.206889 11.804 0.00012207 11.5625 0.00012207Z" fill="#464646"/>
</svg>
