<svg width="16" height="16" viewBox="0 0 16 16" fill="none" xmlns="http://www.w3.org/2000/svg">
<path d="M12 8.00001L12.7071 8.70712L13.4142 8.00001L12.7071 7.2929L12 8.00001ZM4.62623 13.9596C4.2357 14.3501 4.2357 14.9833 4.62623 15.3738C5.01675 15.7643 5.64992 15.7643 6.04044 15.3738L4.62623 13.9596ZM6.04044 0.626237C5.64992 0.235712 5.01675 0.235712 4.62623 0.626237C4.2357 1.01676 4.2357 1.64993 4.62623 2.04045L6.04044 0.626237ZM11.2929 7.2929L4.62623 13.9596L6.04044 15.3738L12.7071 8.70712L11.2929 7.2929ZM4.62623 2.04045L11.2929 8.70712L12.7071 7.2929L6.04044 0.626237L4.62623 2.04045Z" fill="#ffffff"/>
</svg>
