<?xml version="1.0" encoding="utf-8"?>
<!-- Generator: Adobe Illustrator 16.0.0, SVG Export Plug-In . SVG Version: 6.00 Build 0)  -->
<!DOCTYPE svg PUBLIC "-//W3C//DTD SVG 1.1//EN" "http://www.w3.org/Graphics/SVG/1.1/DTD/svg11.dtd">
<svg version="1.1" id="Layer_1" xmlns="http://www.w3.org/2000/svg" xmlns:xlink="http://www.w3.org/1999/xlink" x="0px" y="0px"
	 width="18px" height="17px" viewBox="0 0 18 17" enable-background="new 0 0 18 17" xml:space="preserve">
<path fill="#FFFFFF" d="M2.758,1.552c-0.451,0-0.738,0.353-0.703,0.697c0.69,6.965,6.231,12.506,13.197,13.197
	c0.344,0.035,0.696-0.252,0.696-0.703V11.98c0-0.334-0.214-0.63-0.53-0.735l-2.686-0.896c-0.277-0.092-0.586-0.02-0.793,0.188
	l-0.43,0.43c-0.514,0.514-1.334,0.613-1.953,0.188C8.088,10.15,7.234,9.303,6.322,7.93C5.911,7.31,6.019,6.504,6.523,6l0.439-0.439
	c0.208-0.208,0.28-0.516,0.187-0.794L6.255,2.083C6.149,1.765,5.853,1.552,5.52,1.552H2.758z M0.511,2.402
	C0.376,1.041,1.496,0,2.758,0H5.52C6.521,0,7.41,0.641,7.727,1.591l0.895,2.685C8.901,5.112,8.684,6.035,8.06,6.658L7.627,7.09
	c0.784,1.177,1.488,1.883,2.791,2.775l0.424-0.425c0.623-0.624,1.546-0.841,2.383-0.563l2.684,0.896
	c0.951,0.316,1.592,1.205,1.592,2.207v2.762c0,1.262-1.041,2.382-2.402,2.246C7.397,16.227,1.274,10.104,0.511,2.402z M11.293,0.776
	C11.293,0.348,11.641,0,12.068,0c3,0,5.432,2.432,5.432,5.431c0,0.428-0.348,0.776-0.775,0.776c-0.429,0-0.776-0.348-0.776-0.776
	c0-2.142-1.737-3.879-3.88-3.879C11.641,1.552,11.293,1.204,11.293,0.776z M11.293,3.879c0-0.428,0.348-0.776,0.775-0.776
	c1.286,0,2.328,1.042,2.328,2.328c0,0.428-0.348,0.776-0.775,0.776c-0.429,0-0.776-0.348-0.776-0.776s-0.348-0.776-0.776-0.776
	C11.641,4.655,11.293,4.308,11.293,3.879z"/>
</svg>
