<?xml version="1.0" encoding="utf-8"?>
<!-- Generator: Adobe Illustrator 16.0.0, SVG Export Plug-In . SVG Version: 6.00 Build 0)  -->
<!DOCTYPE svg PUBLIC "-//W3C//DTD SVG 1.1//EN" "http://www.w3.org/Graphics/SVG/1.1/DTD/svg11.dtd">
<svg version="1.1" id="Layer_1" xmlns="http://www.w3.org/2000/svg" xmlns:xlink="http://www.w3.org/1999/xlink" x="0px" y="0px"
	 width="6px" height="10px" viewBox="0 0 6 10" enable-background="new 0 0 6 10" xml:space="preserve">
<path fill="#FFFFFF" d="M5.837,4.61L1.292,0.16C1.187,0.057,1.047,0,0.897,0c-0.149,0-0.29,0.057-0.395,0.16L0.167,0.487
	c-0.218,0.213-0.218,0.561,0,0.774l3.817,3.737l-3.821,3.74C0.058,8.842,0,8.979,0,9.125C0,9.272,0.058,9.41,0.163,9.513L0.498,9.84
	C0.603,9.943,0.743,10,0.893,10c0.149,0,0.29-0.057,0.395-0.16l4.549-4.454C5.942,5.283,6,5.145,6,4.998S5.942,4.713,5.837,4.61z"/>
</svg>
