<svg width="12" height="12" viewBox="0 0 12 12" fill="none" xmlns="http://www.w3.org/2000/svg">
<g clip-path="url(#clip0)">
<path d="M3.68889 6.36918L11.2444 11.9076C11.3861 12.0128 11.5788 12.0294 11.7384 11.951C11.8989 11.8725 12 11.7128 12 11.5384L12 0.461547C12 0.287086 11.8989 0.127396 11.7393 0.0489349C11.6723 0.0166273 11.5996 1.23978e-05 11.5278 1.23978e-05C11.4277 1.23978e-05 11.3276 0.0313969 11.2444 0.0923195L3.68889 5.63073C3.56989 5.7175 3.5 5.85503 3.5 5.99995C3.5 6.14488 3.56989 6.28241 3.68889 6.36918Z" fill="#464646"/>
<path d="M1.3125 0.00012207H0.4375C0.196 0.00012207 0 0.206889 0 0.461656V11.5385C0 11.7932 0.196 12 0.4375 12H1.3125C1.554 12 1.75 11.7932 1.75 11.5385V0.461656C1.75 0.206889 1.554 0.00012207 1.3125 0.00012207Z" fill="#464646"/>
</g>
<defs>
<clipPath id="clip0">
<rect width="12" height="12" fill="white"/>
</clipPath>
</defs>
</svg>
